<svg width="120" height="120" viewBox="0 0 120 120" fill="none" xmlns="http://www.w3.org/2000/svg">
  <!-- Background circle -->
  <circle cx="60" cy="60" r="55" fill="url(#gradient)" stroke="#E5E7EB" stroke-width="2"/>
  
  <!-- Brain icon -->
  <path d="M45 45C45 40 50 35 60 35C70 35 75 40 75 45C75 50 70 55 60 55C50 55 45 50 45 45Z" fill="white" opacity="0.9"/>
  <path d="M40 50C40 45 45 40 55 40C65 40 70 45 70 50C70 55 65 60 55 60C45 60 40 55 40 50Z" fill="white" opacity="0.8"/>
  <path d="M50 55C50 50 55 45 65 45C75 45 80 50 80 55C80 60 75 65 65 65C55 65 50 60 50 55Z" fill="white" opacity="0.7"/>
  
  <!-- Neural connections -->
  <circle cx="50" cy="45" r="2" fill="#3B82F6"/>
  <circle cx="70" cy="45" r="2" fill="#3B82F6"/>
  <circle cx="45" cy="55" r="2" fill="#3B82F6"/>
  <circle cx="75" cy="55" r="2" fill="#3B82F6"/>
  <circle cx="55" cy="65" r="2" fill="#3B82F6"/>
  <circle cx="65" cy="65" r="2" fill="#3B82F6"/>
  
  <!-- Connection lines -->
  <path d="M50 45L45 55" stroke="#3B82F6" stroke-width="1.5" opacity="0.6"/>
  <path d="M70 45L75 55" stroke="#3B82F6" stroke-width="1.5" opacity="0.6"/>
  <path d="M45 55L55 65" stroke="#3B82F6" stroke-width="1.5" opacity="0.6"/>
  <path d="M75 55L65 65" stroke="#3B82F6" stroke-width="1.5" opacity="0.6"/>
  
  <!-- Gradient definition -->
  <defs>
    <linearGradient id="gradient" x1="0%" y1="0%" x2="100%" y2="100%">
      <stop offset="0%" style="stop-color:#3B82F6;stop-opacity:1" />
      <stop offset="100%" style="stop-color:#8B5CF6;stop-opacity:1" />
    </linearGradient>
  </defs>
</svg> 